<svg width="567" height="220" viewBox="0 0 567 220" fill="none" xmlns="http://www.w3.org/2000/svg">
<path d="M106.95 200.627V90.377H152.25V107.027H125.175V135.977H143.325V152.627H125.175V200.627H106.95Z" fill="#2F3D26"/>
<path d="M159.245 200.627V90.377H177.47V185.627H203.42V200.627H159.245Z" fill="#2F3D26"/>
<path d="M272.477 200.627V90.377H290.627C296.177 90.377 301.027 91.027 305.177 92.327C309.327 93.627 312.802 95.602 315.602 98.252C318.402 100.902 320.502 104.252 321.902 108.302C323.302 112.302 324.002 117.027 324.002 122.477C324.002 125.727 323.752 128.677 323.252 131.327C322.802 133.977 322.102 136.327 321.152 138.377C320.252 140.427 319.127 142.202 317.777 143.702C316.477 145.152 314.977 146.327 313.277 147.227L325.052 200.627H306.752L297.302 154.952H290.702V200.627H272.477ZM290.702 138.752C293.352 138.752 295.652 138.402 297.602 137.702C299.602 137.002 301.252 135.977 302.552 134.627C303.852 133.227 304.827 131.552 305.477 129.602C306.127 127.602 306.452 125.327 306.452 122.777C306.452 119.377 305.852 116.477 304.652 114.077C303.502 111.627 301.752 109.752 299.402 108.452C297.102 107.102 294.202 106.427 290.702 106.427V138.752Z" fill="#2F3D26"/>
<path d="M335.612 200.627V90.377H379.112V107.027H353.837V135.977H371.987V153.677H353.837V183.977H379.112V200.627H335.612Z" fill="#2F3D26"/>
<path d="M412.704 201.827C403.154 201.827 396.029 199.102 391.329 193.652C386.629 188.202 384.554 180.202 385.104 169.652L402.954 168.302C402.954 175.252 403.704 180.102 405.204 182.852C406.704 185.602 409.129 186.977 412.479 186.977C414.479 186.977 416.154 186.552 417.504 185.702C418.854 184.852 419.879 183.577 420.579 181.877C421.279 180.177 421.629 178.077 421.629 175.577C421.629 174.127 421.429 172.802 421.029 171.602C420.679 170.402 419.929 168.927 418.779 167.177C417.679 165.427 415.954 163.127 413.604 160.277C411.304 157.377 408.204 153.527 404.304 148.727C398.604 141.727 394.429 135.477 391.779 129.977C389.129 124.427 387.804 119.227 387.804 114.377C387.804 110.077 388.754 106.077 390.654 102.377C392.604 98.627 395.429 95.552 399.129 93.152C402.879 90.752 407.429 89.427 412.779 89.177C420.929 88.777 427.404 91.152 432.204 96.302C437.004 101.452 439.404 108.852 439.404 118.502L421.629 119.852C421.629 114.502 420.929 110.527 419.529 107.927C418.129 105.327 415.954 104.027 413.004 104.027C411.454 104.027 410.129 104.377 409.029 105.077C407.929 105.777 407.079 106.827 406.479 108.227C405.929 109.577 405.654 111.252 405.654 113.252C405.654 116.002 406.229 118.602 407.379 121.052C408.579 123.452 410.329 126.102 412.629 129.002C414.979 131.852 417.879 135.377 421.329 139.577C425.929 145.127 429.529 149.827 432.129 153.677C434.779 157.477 436.654 161.027 437.754 164.327C438.854 167.577 439.404 171.202 439.404 175.202C439.404 180.902 438.404 185.727 436.404 189.677C434.404 193.627 431.429 196.652 427.479 198.752C423.529 200.802 418.604 201.827 412.704 201.827Z" fill="#2F3D26"/>
<rect x="227" y="200.627" width="24" height="15" transform="rotate(180 227 200.627)" fill="#2F3D26"/>
<path fill-rule="evenodd" clip-rule="evenodd" d="M107 117.424L107 120.057C103.923 118.276 100.948 116.318 98.089 114.192C95.0637 114.632 92.0132 114.875 88.9576 114.917C87.3073 114.964 85.7654 115.746 84.7484 117.048C83.9051 118.114 83.0866 119.218 82.2654 120.325C79.2183 124.435 76.1344 128.595 71.6165 131.016C66.5041 134.844 57.2232 130.287 62.5493 124.026C65.941 121.262 69.3919 120.374 72.9107 119.468C76.3824 118.574 79.9203 117.663 83.5325 114.918C83.1537 114.91 82.7743 114.901 82.3945 114.893C79.7797 114.836 77.1465 114.778 74.5374 114.622L74.5379 114.62C73.5124 114.54 72.4826 114.712 71.5379 115.121C61.7642 119.562 41.8173 120.45 39.589 108.139C39.3259 106.929 39.4742 105.665 40.0103 104.547L40.052 104.47C40.6981 103.279 41.7507 102.36 43.017 101.879C44.2829 101.4 45.6777 101.392 46.9477 101.857C49.6818 102.859 52.3901 103.931 55.0907 104.999C68.0719 110.135 80.8742 115.2 95.4945 112.19C93.5741 110.656 91.7192 109.017 89.9325 107.298C87.1081 106.646 84.3481 105.739 81.6875 104.585C78.4783 103.331 75.362 101.846 72.3662 100.142C68.2374 101.357 57.0099 104.301 58.688 99.8056C59.9302 96.4775 65.2467 97.1496 69.238 98.1909L69.2384 98.1895C65.4832 95.5466 62.0136 92.5192 58.8829 89.1595C54.2868 84.332 49.2247 79.9739 43.7677 76.15C41.1479 74.5424 38.4273 73.1028 35.6243 71.842C30.9868 74.5953 17.8523 81.8914 18.556 75.7682C19.1316 70.7553 27.4501 70.2843 32.7856 70.5043C28.6907 69.0446 24.3485 68.4134 20.0072 68.6492C15.6271 68.7189 14.0912 59.2717 19.3514 59.1477C20.9518 59.1096 23.988 61.9069 26.7791 64.4785C28.7421 66.287 30.5838 67.9838 31.7196 68.5041C27.875 64.4045 22.5578 57.2076 24.7542 53.0718C27.5596 47.7906 32.7298 63.0357 34.6463 69.2045L34.6467 69.2031C38.1664 70.7536 41.5802 72.5321 44.8684 74.5257C50.4212 78.4165 55.5755 82.8524 60.252 87.7647C61.0239 88.5427 61.6945 89.2474 62.3192 89.904C64.5287 92.2258 66.1645 93.9449 69.6763 96.1709C67.937 94.9592 66.688 93.148 66.1809 91.0657C65.6003 88.678 66.0479 86.1551 67.4134 84.1127C70.3217 80.0097 72.9996 94.5592 73.6822 98.6424C76.4893 100.207 79.3994 101.579 82.3921 102.75C84.5751 103.62 86.3354 104.396 87.6864 105.052C77.7844 94.7266 70.639 81.6027 69.5813 67.1836C67.2889 66.652 65.7519 64.4968 65.994 62.1509C66.2371 59.8068 68.1828 58.0061 70.5341 57.9506C72.8872 57.8943 74.9108 59.6009 75.2577 61.9319C75.6035 64.2624 74.164 66.4897 71.8984 67.1289C72.8254 77.2531 76.486 86.9289 82.4886 95.1199C83.1719 91.1353 85.1085 87.5412 87.0348 83.9662C89.3623 79.6466 91.6747 75.3551 91.743 70.4366C91.6741 63.6245 92.442 55.569 97.7061 50.6658L97.7075 50.6663C98.9241 49.5557 100.458 48.8563 102.093 48.6642C103.727 48.4735 105.379 48.8001 106.817 49.599C108.011 50.5677 108.75 51.9885 108.862 53.5238C109.166 59.4714 104.347 64.6672 99.6122 69.7716C96.5824 73.0381 93.5872 76.2671 91.9914 79.6319C95.1175 76.5078 98.6616 73.867 102.202 71.2294C106.212 68.2413 110.217 65.2572 113.603 61.5788L113.601 61.5783C114.223 60.7511 114.359 59.6575 113.964 58.7035C112.466 54.989 120.448 51.7332 121.531 57.293C121.868 58.4263 121.646 59.6529 120.931 60.595C120.217 61.539 119.097 62.0832 117.915 62.0625C117.253 61.9304 116.569 62.1508 116.107 62.645C112.467 66.7822 108.068 70.075 103.663 73.3715C100.055 76.0726 96.4423 78.7762 93.2419 81.9489C96.5713 80.604 99.4833 78.6625 102.402 76.7168C104.274 75.4684 106.149 74.2183 108.138 73.1229C109.368 72.5079 110.745 72.2539 112.111 72.3918C113.476 72.5279 114.776 73.0508 115.858 73.8963C117.246 74.9981 117.918 76.7758 117.608 78.5253C117.297 80.2744 116.055 81.713 114.372 82.272C110.731 83.4695 106.634 83.548 102.499 83.6273C98.5004 83.704 94.4661 83.7813 90.7751 84.8724L90.7737 84.8719C89.3862 85.283 88.2462 86.2823 87.6553 87.6052C86.2521 90.8042 85.1125 94.1116 84.249 97.4951C90.6078 105.484 98.3232 112.222 107 117.424Z" fill="#2F3D26"/>
<path fill-rule="evenodd" clip-rule="evenodd" d="M257.978 173V113.675C257.978 106.075 255.678 100.075 251.078 95.675C246.528 91.225 240.603 89 233.303 89C226.053 89 220.153 91.225 215.603 95.675C211.103 100.075 208.903 106.075 209.003 113.675V173H226.328V113.675C226.328 110.775 226.928 108.575 228.128 107.075C229.378 105.525 231.078 104.75 233.228 104.75C235.428 104.75 237.128 105.525 238.328 107.075C239.578 108.625 240.203 110.825 240.203 113.675V173H257.978Z" fill="#FC4F3A"/>
</svg>
